<?xml version="1.0" encoding="UTF-8"?>
<svg xmlns="http://www.w3.org/2000/svg" xmlns:xlink="http://www.w3.org/1999/xlink" width="498.46pt" height="760.23pt" viewBox="0 0 498.46 760.23" version="1.1">
<defs>
<clipPath id="clip1">
  <path d="M 0 243 L 498.460938 243 L 498.460938 760.230469 L 0 760.230469 Z M 0 243 "/>
</clipPath>
</defs>
<g id="surface1">
<g clip-path="url(#clip1)" clip-rule="nonzero">
<path style=" stroke:none;fill-rule:evenodd;fill:rgb(17.999268%,18.798828%,57.299805%);fill-opacity:1;" d="M 395.617188 277.847656 C 396.140625 279.570313 396.425781 281.394531 396.425781 283.285156 C 396.425781 290.828125 391.921875 297.351563 385.464844 300.304688 L 385.464844 321.019531 C 390.074219 322.472656 393.1875 325.1875 393.1875 328.285156 C 393.1875 331.382813 390.074219 334.09375 385.464844 335.550781 L 385.464844 372.671875 C 397.316406 375.097656 405.382813 379.804688 405.382813 385.1875 C 405.382813 390.574219 397.316406 395.277344 385.464844 397.703125 L 385.464844 434.453125 C 397.316406 436.878906 405.382813 441.585938 405.382813 446.96875 C 405.382813 452.355469 397.316406 457.058594 385.464844 459.484375 L 385.464844 535.253906 C 397.316406 537.679688 405.382813 542.382813 405.382813 547.769531 C 405.382813 553.152344 397.316406 557.855469 385.464844 560.285156 L 385.464844 586.382813 C 406.023438 590.027344 462.519531 599.558594 480.476563 597.523438 C 502.578125 595.023438 497.574219 605.03125 497.992188 609.617188 C 498.308594 613.125 498.386719 621.507813 498.402344 625.261719 L 498.457031 625.261719 L 498.457031 760.203125 L 0.148438 760.203125 L 0.148438 625.261719 L 69.820313 625.261719 L 69.820313 492.566406 C 61.839844 490.632813 56.539063 487.273438 56.539063 483.46875 C 56.539063 479.664063 61.839844 476.304688 69.820313 474.367188 L 69.820313 408.898438 C 61.839844 406.964844 56.539063 403.605469 56.539063 399.800781 C 56.539063 395.996094 61.839844 392.636719 69.820313 390.699219 L 69.820313 357.769531 C 61.839844 355.835938 56.539063 352.476563 56.539063 348.671875 C 56.539063 344.867188 61.839844 341.507813 69.820313 339.570313 L 69.820313 307.222656 C 69.820313 295.621094 74.222656 285.667969 80.359375 281.847656 L 80.359375 263.460938 L 80.742188 263.460938 C 74.09375 261.417969 69.230469 255.210938 69.230469 247.902344 C 69.230469 246.261719 69.480469 244.671875 69.9375 243.175781 C 71.96875 249.839844 78.183594 254.714844 85.496094 254.714844 C 92.8125 254.714844 99.027344 249.839844 101.058594 243.175781 C 101.515625 244.671875 101.761719 246.261719 101.761719 247.902344 C 101.761719 255.210938 96.90625 261.417969 90.253906 263.460938 L 90.636719 263.460938 L 90.636719 281.375 C 97.199219 284.789063 102 295.109375 102 307.222656 L 102 339.730469 C 109.628906 341.6875 114.644531 344.96875 114.644531 348.671875 C 114.644531 352.375 109.628906 355.652344 102 357.613281 L 102 390.859375 C 109.628906 392.816406 114.644531 396.097656 114.644531 399.800781 C 114.644531 403.503906 109.628906 406.785156 102 408.742188 L 102 474.527344 C 109.628906 476.484375 114.644531 479.765625 114.644531 483.46875 C 114.644531 487.171875 109.628906 490.453125 102 492.410156 L 102 544.546875 C 111.203125 532.925781 124.839844 524.953125 140.308594 523.226563 L 140.308594 510.101563 L 140.695313 510.101563 C 134.042969 508.0625 129.179688 501.855469 129.179688 494.546875 C 129.179688 492.90625 129.425781 491.316406 129.886719 489.820313 C 131.917969 496.484375 138.132813 501.355469 145.445313 501.355469 C 152.761719 501.355469 158.972656 496.484375 161.007813 489.820313 C 161.464844 491.316406 161.710938 492.90625 161.710938 494.546875 C 161.710938 501.855469 156.851563 508.0625 150.195313 510.101563 L 150.582031 510.101563 L 150.582031 523.015625 C 180.109375 525.050781 203.566406 549.773438 203.566406 579.800781 C 203.566406 580.328125 203.558594 580.851563 203.542969 581.375 C 208.078125 586.746094 219.777344 596.21875 235.554688 585.472656 L 235.554688 541.089844 C 228.613281 539.699219 223.875 536.960938 223.875 533.824219 C 223.875 530.6875 228.613281 527.949219 235.554688 526.558594 L 235.554688 496.933594 C 228.613281 495.539063 223.875 492.804688 223.875 489.667969 C 223.875 486.527344 228.613281 483.789063 235.554688 482.398438 L 235.554688 463.621094 C 228.613281 462.226563 223.875 459.492188 223.875 456.355469 C 223.875 453.21875 228.613281 450.480469 235.554688 449.085938 L 235.554688 439.027344 C 233.109375 435.363281 231.59375 430.316406 231.59375 424.757813 C 231.59375 415.597656 235.710938 407.824219 241.328125 405.351563 C 234.066406 403.726563 228.609375 397.222656 228.609375 389.480469 C 228.609375 387.835938 228.855469 386.25 229.3125 384.753906 C 231.347656 391.417969 237.558594 396.289063 244.875 396.289063 C 252.191406 396.289063 258.402344 391.417969 260.4375 384.753906 C 260.894531 386.25 261.140625 387.835938 261.140625 389.480469 C 261.140625 397.097656 255.859375 403.515625 248.773438 405.269531 C 254.488281 407.648438 258.699219 415.492188 258.699219 424.757813 C 258.699219 430.167969 257.261719 435.097656 254.929688 438.730469 L 254.972656 438.730469 L 254.972656 448.832031 C 262.660156 450.121094 268.035156 453.011719 268.035156 456.355469 C 268.035156 459.695313 262.660156 462.585938 254.972656 463.875 L 254.972656 482.144531 C 262.660156 483.433594 268.035156 486.324219 268.035156 489.667969 C 268.035156 493.007813 262.660156 495.898438 254.972656 497.1875 L 254.972656 526.300781 C 262.660156 527.59375 268.035156 530.480469 268.035156 533.824219 C 268.035156 537.167969 262.660156 540.054688 254.972656 541.347656 L 254.972656 587.265625 C 264.585938 593.128906 304.4375 613.789063 346.191406 582.929688 C 346.277344 582.863281 346.359375 582.804688 346.445313 582.742188 L 346.445313 559.738281 C 335.945313 557.191406 328.972656 552.773438 328.972656 547.769531 C 328.972656 542.765625 335.945313 538.347656 346.445313 535.800781 L 346.445313 458.9375 C 335.945313 456.390625 328.972656 451.972656 328.972656 446.96875 C 328.972656 441.964844 335.945313 437.546875 346.445313 435 L 346.445313 397.15625 C 335.945313 394.609375 328.972656 390.195313 328.972656 385.1875 C 328.972656 380.183594 335.945313 375.765625 346.445313 373.21875 L 346.445313 350.898438 C 340.324219 349.78125 335.890625 346.632813 335.890625 342.9375 C 335.890625 339.242188 340.324219 336.089844 346.445313 334.972656 L 346.445313 314.761719 C 342.640625 312.851563 340.019531 308.910156 340.019531 304.378906 C 340.019531 303.203125 340.195313 302.070313 340.523438 301.003906 C 341.976563 305.761719 346.410156 309.238281 351.636719 309.238281 C 356.859375 309.238281 361.292969 305.761719 362.746094 301.003906 C 363.070313 302.070313 363.25 303.203125 363.25 304.378906 C 363.25 308.914063 360.625 312.855469 356.820313 314.765625 L 356.820313 335.089844 C 362.628906 336.300781 366.773438 339.363281 366.773438 342.9375 C 366.773438 346.511719 362.628906 349.574219 356.820313 350.78125 L 356.820313 371.460938 C 360.113281 371.109375 363.589844 370.925781 367.175781 370.925781 C 368.136719 370.925781 369.089844 370.9375 370.035156 370.964844 L 370.035156 335.550781 C 365.417969 334.097656 362.304688 331.382813 362.304688 328.285156 C 362.304688 325.1875 365.417969 322.46875 370.035156 321.015625 L 370.035156 300.328125 C 363.550781 297.386719 359.019531 290.847656 359.019531 283.285156 C 359.019531 281.394531 359.304688 279.570313 359.828125 277.847656 C 362.167969 285.511719 369.308594 291.113281 377.722656 291.113281 C 386.132813 291.113281 393.277344 285.511719 395.617188 277.847656 "/>
</g>
<path style=" stroke:none;fill-rule:evenodd;fill:rgb(100%,79.598999%,1.199341%);fill-opacity:1;" d="M 385.464844 341.546875 L 385.464844 335.550781 C 390.074219 334.09375 393.1875 331.378906 393.1875 328.285156 C 393.1875 326.789063 392.460938 325.382813 391.191406 324.164063 L 498.3125 303.5 L 498.3125 346.5 Z M 366.214844 340.703125 C 364.902344 338.125 361.371094 336.035156 356.820313 335.089844 L 356.820313 330.792969 L 362.519531 329.691406 C 363.304688 332.191406 366.132813 334.320313 370.035156 335.550781 L 370.035156 340.871094 Z M 370.035156 370.554688 L 370.035156 370.964844 C 369.089844 370.9375 368.136719 370.925781 367.175781 370.925781 C 363.589844 370.925781 360.113281 371.109375 356.820313 371.460938 L 356.820313 368.4375 Z M 394.695313 395.0625 C 401.304688 392.496094 405.378906 389.015625 405.378906 385.1875 C 405.378906 380.503906 399.273438 376.332031 389.882813 373.730469 L 498.3125 391.085938 L 498.3125 438.03125 Z M 385.464844 467.855469 L 385.464844 459.484375 C 396.683594 457.1875 404.507813 452.847656 405.3125 447.824219 L 498.3125 504.742188 L 498.3125 580.296875 Z M 424.824219 592.789063 L 397.738281 556.308594 C 394.464844 557.9375 390.273438 559.296875 385.464844 560.285156 L 385.464844 586.382813 C 394.089844 587.914063 409.046875 590.476563 424.824219 592.789063 M 436.015625 760.203125 L 436.027344 760.230469 L 496.679688 760.230469 L 496.734375 760.203125 Z M 255.121094 448.855469 C 255.070313 448.847656 255.019531 448.839844 254.972656 448.832031 L 254.972656 447.730469 Z M 259.695313 483.21875 C 258.253906 482.792969 256.671875 482.429688 254.972656 482.144531 L 254.972656 463.875 C 255.691406 463.753906 256.390625 463.621094 257.066406 463.472656 Z M 265.964844 530.347656 C 263.722656 528.554688 259.804688 527.113281 254.972656 526.300781 L 254.972656 497.1875 C 257.34375 496.789063 259.496094 496.238281 261.339844 495.570313 Z M 274.695313 595.933594 C 265.273438 593.109375 258.304688 589.296875 254.972656 587.265625 L 254.972656 541.347656 C 260.464844 540.421875 264.777344 538.683594 266.789063 536.546875 Z M 213.839844 760.203125 L 213.839844 760.230469 L 296.5625 760.230469 L 296.558594 760.203125 Z M 235.554688 548.253906 L 231.496094 587.847656 C 232.816406 587.199219 234.171875 586.414063 235.554688 585.472656 Z M 26.308594 760.203125 L 26.296875 760.230469 L 124.550781 760.230469 L 124.558594 760.203125 Z M 69.820313 462.304688 L 69.820313 474.367188 C 61.839844 476.304688 56.539063 479.664063 56.539063 483.46875 C 56.539063 487.273438 61.839844 490.632813 69.820313 492.566406 L 69.820313 511.878906 L 0 582.574219 L 0 505.8125 Z M 69.820313 379.445313 L 69.820313 390.699219 C 61.839844 392.636719 56.539063 395.996094 56.539063 399.800781 C 56.539063 403.605469 61.839844 406.964844 69.820313 408.898438 L 69.820313 409.078125 L 0 438.773438 L 0 391.269531 Z M 69.820313 311.101563 L 69.820313 338.113281 L 0 340.011719 L 0 296.421875 Z M 308.085938 274.28125 L 436.871094 144.449219 L 398.8125 115.164063 L 303.980469 270.910156 C 296.359375 265.019531 287.757813 260.351563 278.460938 257.203125 L 352.800781 79.757813 L 307.796875 45.125 L 273.316406 255.644531 C 267.0625 253.945313 260.53125 252.933594 253.8125 252.675781 L 280.519531 24.132813 L 249.15625 0 L 221.039063 21.632813 L 248.449219 252.628906 C 241.464844 252.785156 234.671875 253.769531 228.175781 255.476563 L 191.386719 44.453125 L 146.386719 79.082031 L 223.074219 256.988281 C 213.78125 260.054688 205.171875 264.632813 197.527344 270.429688 L 100.425781 114.449219 L 62.167969 143.890625 L 193.484375 273.691406 C 186.367188 279.777344 180.230469 286.976563 175.351563 295.015625 L 17.816406 178.023438 L 0 191.730469 L 0 225.433594 L 71.394531 255.988281 C 70.019531 253.605469 69.230469 250.84375 69.230469 247.902344 C 69.230469 246.261719 69.480469 244.671875 69.933594 243.175781 C 71.96875 249.839844 78.183594 254.714844 85.496094 254.714844 C 92.8125 254.714844 99.027344 249.839844 101.058594 243.175781 C 101.515625 244.671875 101.765625 246.261719 101.765625 247.902344 C 101.765625 255.210938 96.90625 261.417969 90.253906 263.460938 L 90.632813 263.460938 L 90.632813 264.222656 L 172.859375 299.410156 C 167.792969 308.953125 164.441406 319.53125 163.203125 330.734375 L 102 317.867188 L 102 337.242188 L 162.804688 335.589844 C 162.714844 337.171875 162.671875 338.765625 162.671875 340.371094 C 162.671875 348.269531 163.730469 355.921875 165.699219 363.210938 L 102 373.996094 L 102 390.859375 C 104.214844 391.425781 106.207031 392.105469 107.921875 392.875 L 167.054688 367.722656 C 170.121094 377.035156 174.710938 385.664063 180.523438 393.320313 L 102 442.253906 L 102 474.527344 C 103.285156 474.855469 104.496094 475.222656 105.621094 475.625 L 183.378906 396.882813 C 191.78125 406.835938 202.351563 414.90625 214.347656 420.351563 L 157.085938 523.84375 C 168.210938 525.921875 178.210938 531.25 186.0625 538.800781 L 218.480469 422.101563 C 222.714844 423.765625 227.105469 425.105469 231.621094 426.101563 C 231.605469 425.65625 231.59375 425.210938 231.59375 424.757813 C 231.59375 415.597656 235.710938 407.824219 241.328125 405.351563 C 234.066406 403.726563 228.609375 397.21875 228.609375 389.480469 C 228.609375 387.835938 228.855469 386.25 229.3125 384.753906 C 231.347656 391.417969 237.558594 396.289063 244.875 396.289063 C 252.191406 396.289063 258.402344 391.417969 260.4375 384.753906 C 260.894531 386.25 261.140625 387.835938 261.140625 389.480469 C 261.140625 397.097656 255.859375 403.515625 248.773438 405.269531 C 254.488281 407.648438 258.699219 415.492188 258.699219 424.757813 C 258.699219 425.78125 258.648438 426.78125 258.550781 427.765625 C 269.742188 426.730469 280.339844 423.578125 289.933594 418.71875 L 340.742188 537.488281 C 342.492188 536.859375 344.398438 536.296875 346.445313 535.796875 L 346.445313 487.214844 L 293.972656 416.539063 C 302.246094 411.785156 309.683594 405.714844 315.988281 398.628906 L 346.445313 428.972656 L 346.445313 411.796875 L 319.03125 395.019531 C 325.078125 387.449219 329.902344 378.859375 333.199219 369.5625 L 343.746094 373.933594 C 344.617188 373.683594 345.519531 373.441406 346.445313 373.21875 L 346.445313 366.777344 L 334.707031 364.898438 C 336.378906 359.1875 337.480469 353.238281 337.949219 347.117188 C 336.640625 345.886719 335.890625 344.457031 335.890625 342.9375 C 335.890625 339.242188 340.324219 336.089844 346.445313 334.972656 L 346.445313 332.792969 L 338.003906 334.421875 C 337.21875 322.816406 334.164063 311.820313 329.277344 301.871094 L 359.925781 289.039063 C 359.335938 287.226563 359.019531 285.292969 359.019531 283.285156 C 359.019531 281.394531 359.300781 279.570313 359.828125 277.847656 C 360.886719 281.316406 362.925781 284.359375 365.625 286.652344 L 498.3125 231.109375 L 498.3125 191.730469 L 485.164063 181.613281 L 326.839844 297.257813 C 321.914063 288.574219 315.558594 280.808594 308.085938 274.28125 "/>
<path style=" stroke:none;fill-rule:evenodd;fill:rgb(100%,100%,100%);fill-opacity:1;" d="M 359.203125 684.785156 L 402.453125 684.785156 L 402.453125 703.199219 L 359.203125 703.199219 Z M 295.832031 728.890625 L 295.832031 745.59375 L 312.53125 745.59375 L 442.703125 745.589844 L 442.703125 745.59375 L 459.402344 745.59375 L 459.402344 639.824219 L 442.703125 639.824219 L 442.703125 728.890625 L 385.96875 728.890625 L 385.96875 719.898438 L 426.859375 719.898438 L 426.859375 668.085938 L 328.375 668.085938 L 328.375 719.898438 L 369.269531 719.898438 L 369.269531 728.890625 L 312.53125 728.890625 L 312.53125 639.824219 L 295.832031 639.824219 Z M 387.679688 639.824219 L 403.097656 639.824219 C 406.863281 639.824219 409.945313 642.90625 409.945313 646.675781 L 409.945313 653.527344 C 409.945313 657.296875 406.863281 660.378906 403.097656 660.378906 L 387.679688 660.378906 C 383.910156 660.378906 380.828125 657.296875 380.828125 653.527344 L 380.828125 646.675781 C 380.828125 642.90625 383.910156 639.824219 387.679688 639.824219 M 352.140625 639.824219 L 367.554688 639.824219 C 371.324219 639.824219 374.40625 642.90625 374.40625 646.675781 L 374.40625 653.527344 C 374.40625 657.296875 371.324219 660.378906 367.554688 660.378906 L 352.140625 660.378906 C 348.371094 660.378906 345.289063 657.296875 345.289063 653.527344 L 345.289063 646.675781 C 345.289063 642.90625 348.371094 639.824219 352.140625 639.824219 M 206.742188 684.359375 L 254.261719 684.355469 L 254.261719 656.527344 L 206.742188 656.523438 Z M 206.742188 728.890625 L 254.261719 728.890625 L 254.261719 701.058594 L 206.742188 701.058594 Z M 270.960938 639.824219 L 270.960938 745.59375 L 254.261719 745.59375 L 206.742188 745.589844 L 206.742188 745.59375 L 190.042969 745.59375 L 190.042969 701.058594 L 162.597656 701.058594 L 162.597656 745.59375 L 145.898438 745.59375 L 145.898438 745.589844 L 30.570313 745.589844 L 30.570313 745.59375 L 13.871094 745.59375 L 13.871094 639.824219 L 162.597656 639.824219 L 162.597656 676.492188 L 145.898438 676.492188 L 145.898438 656.523438 L 30.570313 656.523438 L 30.570313 728.890625 L 145.898438 728.890625 L 145.898438 684.359375 L 190.042969 684.355469 L 190.042969 639.824219 Z M 68.328125 682.589844 L 104.191406 682.589844 L 104.191406 702.828125 L 68.328125 702.828125 Z M 51.628906 665.890625 L 51.628906 719.527344 L 120.894531 719.527344 L 120.894531 665.890625 Z M 489.808594 639.824219 L 473.105469 639.824219 L 473.105469 745.59375 L 489.808594 745.59375 "/>
</g>
</svg>
