<svg viewBox="-76 0 512 512" xmlns="http://www.w3.org/2000/svg"><path d="m0 273.707031v58.691407c0 99.191406 80.410156 179.601562 179.601562 179.601562 99.191407 0 179.601563-80.410156 179.601563-179.601562v-58.691407zm0 0" fill="#fd7560"/><path d="m179.585938 273.707031v238.292969h.015624c99.191407 0 179.601563-80.410156 179.601563-179.601562v-58.691407zm0 0" fill="#fc4582"/><path d="m359.175781 63.890625v268.523437c0 13.464844-1.515625 27.574219-4.761719 41.328126l-174.828124-81.308594-174.804688 81.289062c-3.121094-13.265625-4.78125-27.101562-4.78125-41.320312v-268.511719l149.074219-63.890625v58.777344h61.027343v-58.777344zm0 0" fill="#fd935c"/><path d="m359.207031 332.460938c-.011719 14.207031-1.671875 28.023437-4.792969 41.28125l-174.828124-81.308594v-233.65625h30.515624v-58.777344l149.074219 63.890625v268.523437zm0 0" fill="#fd7560"/><path d="m134.066406 118.808594h91.042969v121.058594h-91.042969zm0 0" fill="#fff5db"/><path d="m179.585938 118.808594h45.523437v121.058594h-45.523437zm0 0" fill="#fee195"/></svg>